<svg data-name="Layer 1" xmlns="http://www.w3.org/2000/svg" xmlns:xlink="http://www.w3.org/1999/xlink" viewBox="0 0 503.23 356.2"><defs><linearGradient id="a" x1="367.96" y1="204.3" x2="400.7" y2="226.2" gradientTransform="rotate(-3.16 369.128 205.195)" gradientUnits="userSpaceOnUse"><stop offset="0" stop-color="#010101" stop-opacity="0"/><stop offset=".95" stop-color="#010101"/></linearGradient><linearGradient id="c" x1="369.47" y1="200.24" x2="368.09" y2="216.08" gradientTransform="rotate(-3.16 369.087 200.114)" xlink:href="#a"/><linearGradient id="d" x1="371.11" y1="192.11" x2="369.63" y2="221.98" gradientTransform="rotate(-3.16 370.491 195.255)" xlink:href="#a"/><linearGradient id="e" x1="311.84" y1="211.59" x2="443.51" y2="211.59" xlink:href="#a"/><linearGradient id="f" x1="310.25" y1="214.89" x2="441.92" y2="214.89" xlink:href="#a"/><linearGradient id="b" x1="412.57" y1="267.57" x2="399.53" y2="186.96" gradientUnits="userSpaceOnUse"><stop offset="0" stop-color="#e5c6d6"/><stop offset=".42" stop-color="#ead4d0"/><stop offset="1" stop-color="#f0e9cb"/></linearGradient><linearGradient id="g" x1="191.55" y1="220.08" x2="154.69" y2="192.01" xlink:href="#a"/><linearGradient id="h" x1="186.34" y1="117.44" x2="194.47" y2="117.44" xlink:href="#b"/><linearGradient id="i" x1="191.6" y1="119.21" x2="191.95" y2="101.7" xlink:href="#a"/><linearGradient id="j" x1="186.84" y1="109.41" x2="201.58" y2="109.41" xlink:href="#b"/><linearGradient id="k" x1="196.07" y1="108.22" x2="186.82" y2="97.27" xlink:href="#a"/><linearGradient id="l" x1="240.63" y1="137.24" x2="254.17" y2="137.24" xlink:href="#b"/><linearGradient id="m" x1="168.14" y1="142.45" x2="134.26" y2="103.05" gradientUnits="userSpaceOnUse"><stop offset="0" stop-color="#fff" stop-opacity="0"/><stop offset=".95" stop-color="#fff"/></linearGradient><linearGradient id="n" x1="204.86" y1="172.81" x2="-63.92" y2="-141.04" xlink:href="#a"/><linearGradient id="o" x1="145.38" y1="168.02" x2="152.52" y2="168.02" xlink:href="#b"/><linearGradient id="p" x1="242.96" y1="119.53" x2="248.75" y2="119.69" xlink:href="#a"/><linearGradient id="q" x1="152.28" y1="128.38" x2="192.53" y2="128.38" xlink:href="#a"/><linearGradient id="r" x1="189.22" y1="110.34" x2="193.38" y2="110.22" xlink:href="#a"/><linearGradient id="s" x1="166.34" y1="189" x2="193.69" y2="185.03" gradientTransform="rotate(5.39 155.562 190.581)" xlink:href="#a"/><linearGradient id="t" x1="150.41" y1="160.98" x2="150.05" y2="211.66" xlink:href="#a"/><linearGradient id="u" x1="477.13" y1="238.63" x2="546.33" y2="305.38" xlink:href="#a"/><linearGradient id="v" x1="165.23" y1="84.27" x2="358.25" y2="98.74" xlink:href="#a"/></defs><path d="M485.48 221.76a146.83 146.83 0 01-10.54 11.63c-10.37 10.39-21.91 19.7-32.21 30.18-17.16 17.43-30.81 38-47.7 55.68s-38.3 32.83-62.65 34.86c-18.88 1.57-37.4-4.9-56.16-7.71-62.62-9.36-127.9 22-188.74 4.29-36.56-10.6-67.34-39.39-80.36-75.21s-7.94-77.6 13.23-109.23c12.27-18.34 29.28-33 43.17-50.06 31.24-38.48 50.54-92.5 97.3-109 14.47-5.11 30.09-5.8 45.44-6.47 35.83-1.54 74-2.5 104.64 16.13 22.6 13.81 38 36.53 56.52 55.41 21.63 22 44.29 34.77 72.56 44.22 25 8.37 55 21.6 61.93 49.88a42.42 42.42 0 01.91 4.86c2.39 17.95-5.86 36.31-17.34 50.54z" fill="#4b39ef" opacity=".24" style="isolation:isolate"/><path d="M226.1 130.87c-25.15-7.94-53.5-12.66-77.15-1-30.55 15.12-43.38 52.32-70.42 73.09-6.47 5-13.85 9.08-18.68 15.66-3.58 4.93-5.49 10.86-6.49 16.86-3.27 19.68 3.38 40.63 17 55.24s33.71 22.72 53.65 22.22 38.56-8.92 57.93-13.34c60.09-13.73 121.82 11.54 183.44 13.11 14.6.37 30.71-1.23 40.89-11.72 11.93-12.3 11.4-32.3 21.05-46.46 5.33-7.82 13.37-13.28 20.22-19.81s12.91-15.15 12.2-24.59c-.77-10.15-9.3-18.24-18.65-22.3s-19.67-5.09-29.55-7.55c-19.62-4.87-37.33-15.29-56-23-21.72-8.8-39.72-6.88-62.06-7.8-23.08-.91-45.66-11.75-67.38-18.61z" fill="#4b39ef" opacity=".24" style="isolation:isolate"/><rect x="353.3" y="202.98" width="32.53" height="4.78" rx="1.79" transform="rotate(3.16 974.226 94.49)" fill="#4b39ef"/><rect x="353.3" y="202.98" width="32.53" height="4.78" rx="1.79" transform="rotate(3.16 974.226 94.49)" fill="url(#a)"/><rect x="353.19" y="197.98" width="32.53" height="4.78" rx="1.79" transform="rotate(3.16 974.086 89.414)" fill="#4b39ef"/><rect x="353.19" y="197.98" width="32.53" height="4.78" rx="1.79" transform="rotate(3.16 974.086 89.414)" fill="url(#c)"/><rect x="354.68" y="193.09" width="32.53" height="4.78" rx="1.79" transform="rotate(3.16 975.587 84.656)" fill="#4b39ef"/><rect x="354.68" y="193.09" width="32.53" height="4.78" rx="1.79" transform="rotate(3.16 975.587 84.656)" fill="url(#d)"/><path d="M365 206.93c-17.84-1.7-36.39-2.49-53.13 3.9l7.66 3.63a6.68 6.68 0 002.73.84 7.57 7.57 0 002.93-.84c6.27-2.59 13.28-2.61 20.07-2.34 27.94 1.11 55.73 6.39 83.66 5.15 5-.23 10.1-.69 14.62-2.81-6.78-2.07-13.75-4.91-20.7-6.29-5.23-1-10.32.81-15.65 1.13-14.27.85-28.11-2.37-42.19-2.37z" transform="translate(-5.18 -33.52)" fill="url(#e)"/><path d="M362.59 174.6c-17.84-1.7-36.39-2.49-53.13 3.9l7.66 3.63a6.68 6.68 0 002.73.84 7.74 7.74 0 002.93-.84c6.27-2.6 13.28-2.61 20.07-2.34 27.94 1.11 55.73 6.39 83.66 5.14 5-.22 10.1-.68 14.62-2.81-6.78-2.06-13.75-4.91-20.7-6.28-5.23-1-10.32.81-15.65 1.13-14.24.84-28.08-2.37-42.19-2.37z" fill="#4b39ef"/><path d="M358.19 176.71c-17.84-1.71-36.38-2.49-53.12 3.9l7.65 3.63a6.73 6.73 0 002.73.84 7.64 7.64 0 002.93-.84c6.28-2.6 13.29-2.61 20.08-2.34 27.93 1.11 55.73 6.39 83.66 5.14 5-.22 10.1-.68 14.62-2.81-6.79-2.06-13.75-4.91-20.71-6.28-5.22-1-10.31.81-15.65 1.12-14.24.85-28.07-2.36-42.19-2.36z" fill="#4b39ef"/><path d="M363.37 210.23c-17.84-1.71-36.38-2.49-53.12 3.9l7.65 3.63a6.73 6.73 0 002.73.84 7.64 7.64 0 002.93-.84c6.28-2.6 13.29-2.61 20.08-2.34 27.93 1.11 55.73 6.39 83.66 5.14 5-.22 10.1-.68 14.62-2.81-6.79-2.06-13.75-4.91-20.71-6.28-5.22-1-10.31.81-15.65 1.12-14.24.85-28.07-2.36-42.19-2.36z" transform="translate(-5.18 -33.52)" fill="url(#f)"/><path d="M360.99 177.9c-17.84-1.71-36.38-2.5-53.12 3.9l7.65 3.68a6.73 6.73 0 002.73.84 7.64 7.64 0 002.93-.84c6.28-2.6 13.29-2.62 20.08-2.35 27.93 1.12 55.73 6.39 83.66 5.15 5-.22 10.1-.69 14.62-2.81-6.79-2.11-13.72-4.99-20.72-6.34-5.23-1-10.31.81-15.65 1.13-14.23.85-28.06-2.36-42.18-2.36z" fill="#4b39ef"/><path d="M458.46 214.64a66.33 66.33 0 01-8-4.74 105.76 105.76 0 00-47.28-16 3.35 3.35 0 00-1.86.19c-1.17.61-1.23 2.28-.83 3.54 2.2 6.87 11.54 8 16.58 13.19a2.89 2.89 0 011 2c-.05 1.44-1.81 2.08-3.23 2.35-17.34 3.28-35.31 6.54-52.45 2.36-7.51-1.83-14.72-5.07-22.41-5.85a4.92 4.92 0 00-2.56.24 3.48 3.48 0 00-1.45 4.17 8.76 8.76 0 002.9 3.77c9 7.77 20.69 11.47 32 15 14.73 4.56 29.71 9.17 45.12 9.36 4.75.06 9.49-.31 14.22-.67l33.94-2.6a7 7 0 002.68-.57 6.3 6.3 0 002.43-2.81 33.72 33.72 0 004-16.84c-.15-5.85-10.37-4.08-14.8-6.09z" transform="translate(-5.18 -33.52)" fill="url(#b)"/><path d="M464.15 172.99a1.55 1.55 0 00-1 0 1.38 1.38 0 00-.56.63c-2.28 4-2.74 8.7-4.32 13-.81 2.22-1.92 4.32-2.68 6.56a43.32 43.32 0 00-1.56 7.25 78 78 0 00-1.21 11.28 2.12 2.12 0 00.28 1.34 2.1 2.1 0 001 .64 30.45 30.45 0 0011.87 2 1.33 1.33 0 00.79-.2 1.37 1.37 0 00.38-.7q3-10.06 5.11-20.38 1-5.19 1.81-10.44c.26-1.75.63-3.56.73-5.33s-.56-2.19-2.19-3a48.22 48.22 0 00-8.45-2.65z" fill="#fff"/><path d="M136.47 143.48l-.16-2.81a4.37 4.37 0 013.89-4.27l6.49-.68a4.32 4.32 0 014.71 3.48l.5 2.73-2.23.41-.5-2.71a2.06 2.06 0 00-2.25-1.66l-6.49.68a2.08 2.08 0 00-1.85 2l.16 2.7zm19.08 46c-1.88 6.62-5 12.82-7 19.43-2.23 7.67-2.74 15.71-3.24 23.68.81 1.36 2.84 1.5 4.22.71a9.1 9.1 0 003-3.57 475.15 475.15 0 0034.92-73.87l27.71 4.62a2.69 2.69 0 012.89 3.29l-.45 29.13 6.74.15a1.9 1.9 0 002.48-1.89l6.45-39.55c.36-2.19.69-4.57-.4-6.51a9.42 9.42 0 00-3.47-3.12 79.52 79.52 0 00-43.79-11.74c-4.4.12-8.87.61-13.14-.45-6.8-1.7-9.71-6.16-12 2.45-1.67 6.25-2 12.8-2.2 19.24-.3 12.66.8 25.66-2.72 38z" fill="#606161"/><path d="M160.73 223c-1.88 6.62-5 12.82-7 19.43-2.23 7.67-2.74 15.71-3.24 23.68.81 1.36 2.84 1.5 4.22.71a9.1 9.1 0 003-3.57 475.15 475.15 0 0034.92-73.87l27.71 4.62a2.69 2.69 0 012.89 3.29l-.45 29.13 6.74.15a1.9 1.9 0 002.48-1.89l6.45-39.55c.36-2.19.69-4.57-.4-6.51a9.42 9.42 0 00-3.47-3.12 79.52 79.52 0 00-43.79-11.74c-4.4.12-8.87.61-13.14-.45-6.8-1.7-9.71-6.16-12 2.45-1.67 6.25-2 12.8-2.2 19.24-.3 12.66.8 25.66-2.72 38z" transform="translate(-5.18 -33.52)" fill="url(#g)"/><path d="M236.62 105.06v3.96L221 113.1c-3.08.79-6.37 1.57-9.36.57a15.87 15.87 0 01-5.08-3.2 60.61 60.61 0 01-8.67-8.28c-.48-.57-.94-1.17-1.39-1.81a29.64 29.64 0 01-4.68-10.06c-.3-1.24-1.09-2.11-.3-3.11.63-.78 2.47-.87 3.38-.78a11.73 11.73 0 014.41 1.63c6.65 3.71 12.11 9.12 17.91 14.07a6.46 6.46 0 001.55 1.06 7.56 7.56 0 002.56.49l14.59.72a.64.64 0 01.52.18.58.58 0 01.18.48z" fill="#4b39ef"/><path d="M190.19 131.92c-1.6 2.57-10.79 1.54-17.22-.21a19.51 19.51 0 01-5.83-2.3c-1.33-1-2.75-2.2-3-3.83a6.89 6.89 0 01.21-2.6c1.54-7.46 3.11-14.92 4.65-22.39.36-1.69.7-3.41 1.06-5.1a25.48 25.48 0 011.51-5.23 22 22 0 012.72-4.35c1-1.33-.33-3.59 1.33-3.71 4.83-.37 7.22-.46 9.6.57 3 1.33 7.71 2.36 10.67 3.84.87.42.09 1.3.69 2.11a5.91 5.91 0 01.82 2.27c2.3 10.6-1.53 31.66-7.21 40.93z" fill="#4b39ef"/><path fill="#606161" d="M180.11 81.92l.71 10.95 5.14-2.69 3.23 2.48-.18-1.45-8.19-9.25-.71-.04z"/><path fill="#4b39ef" d="M188.73 83.84l.55 8.16-3.28-2.67 2.73-5.49z"/><path d="M186.47 116.54a3.25 3.25 0 00.74 3.24 3.75 3.75 0 001.63.78c.68.17 1.63 2.28 2.34 2.29.36 0 .75-1.52 1.06-1.7s.32-1.11.52-1.47l1.35-2.39a1.76 1.76 0 00.32-1.29 1.74 1.74 0 00-.87-.86l-2.5-1.47c-.93-.56-3.8-2.47-3.91-1.22a29 29 0 01-.68 4.09z" transform="translate(-5.18 -33.52)" fill="url(#h)"/><path d="M189.32 115.07s-.08 4.69 2.66 5.56a9 9 0 001.93-3.27c.9-2.36-4.59-2.29-4.59-2.29z" transform="translate(-5.18 -33.52)" fill="url(#i)"/><path d="M221.82 30.04c-5.91.71-11.69 3.56-17.56 2.58-2.92-.49-5.59-1.91-8.37-2.91a31.34 31.34 0 00-24.39 1.47c4.89 1.31 10 3.18 13.08 7.17 3.71 4.73 3.92 11.48 7.54 16.27 2.85 3.78 7.5 5.85 12.18 6.54s9.44.14 14.13-.43c1.9-.23 4-.44 5.61.57s2.33 2.79 3.3 4.35c3.13 5 10.52 7.35 16.35 6.31.35-8.84 4.48-24.57.77-32.19-3.52-7.29-15.29-10.61-22.64-9.73zm266 187.9a120.45 120.45 0 01-8.66 9.56c-3.3-.77-6.65-1.39-10-1.86a3.82 3.82 0 01-2.16-.8 3.58 3.58 0 01-.62-2.8 431.64 431.64 0 015.83-50.32l18.37 2.63c.89.15 8.41 1.14 11.49 2.09 1.91 14.72-4.86 29.81-14.25 41.5zm-279.69-18.27h89.83v24.14h-89.83zM118.3 242.8h89.83v24.14H118.3zm-81.28 36.95h89.83v24.14H37.02zm45.79 41.39h89.83v24.14H82.81z" fill="#4b39ef"/><path d="M201.2 109.71a2.31 2.31 0 01.38 1.11c0 .62-.58 1.05-1.08 1.41a9 9 0 00-2.87 2.88c-.48.88-.74 2-1.55 2.53-1.1.79-2.62.29-3.86-.23-1.55-.65-5.27-4-5.35-4.74-.23-2 .82-4.29 1.54-6.15.85-2.17 2.22-4.31 4.36-5.25a5.93 5.93 0 014.86.06c4.07 1.93 1.94 5.18 3.57 8.38z" transform="translate(-5.18 -33.52)" fill="url(#j)"/><path d="M190.58 63.13a13.4 13.4 0 017 4 2.51 2.51 0 01.69 1.35 2.14 2.14 0 01-.67 1.57 5.49 5.49 0 01-5.16 1.41 7.61 7.61 0 00-3-.44 4.15 4.15 0 00-2.36 1.87 13.89 13.89 0 00-1.82 3.58c-.24 0-.4-.26-.41-.5a1.44 1.44 0 00-.09-.72.61.61 0 00-.83-.12 1.23 1.23 0 00-.46.78 2.55 2.55 0 00.57 2.17 2.41 2.41 0 00-2.07 1c-.07.1-.16.21-.27.18a.28.28 0 01-.13-.11 9.56 9.56 0 01-1.19-7.9 6.76 6.76 0 011-2.33 3.49 3.49 0 011.31-1.16c.44-.21 1.23-.16 1.55-.53.51-.58.25-2 .56-2.71.83-2.16 4.02-1.83 5.78-1.39z" fill="#606161"/><path d="M195.76 96.65a13.4 13.4 0 017 4 2.51 2.51 0 01.69 1.35 2.14 2.14 0 01-.67 1.57 5.49 5.49 0 01-5.16 1.41 7.61 7.61 0 00-3-.44 4.15 4.15 0 00-2.36 1.87 13.89 13.89 0 00-1.82 3.58c-.24 0-.4-.26-.41-.5a1.44 1.44 0 00-.09-.72.61.61 0 00-.83-.12 1.23 1.23 0 00-.46.78 2.55 2.55 0 00.57 2.17 2.41 2.41 0 00-2.07 1c-.07.1-.16.21-.27.18a.28.28 0 01-.13-.11 9.56 9.56 0 01-1.19-7.9 6.76 6.76 0 011-2.33 3.49 3.49 0 011.31-1.16c.44-.21 1.23-.16 1.55-.53.51-.58.25-2 .56-2.71.83-2.16 4.02-1.83 5.78-1.39z" transform="translate(-5.18 -33.52)" fill="url(#k)"/><path d="M247 136a.94.94 0 01-.19.46 1 1 0 01-.45.19l-2.86.66a6.25 6.25 0 00-1.85.64 2 2 0 00-1.05 1.57 2.07 2.07 0 001.4 1.88 6.23 6.23 0 002.4.37 40.08 40.08 0 004.9-.11 6.74 6.74 0 003.25-1 4.06 4.06 0 001.63-3.74c-.17-1.41-1.63-3.64-3.09-4.08-2.18-.68-3.62 1.38-4.09 3.16z" transform="translate(-5.18 -33.52)" fill="url(#l)"/><path d="M179.31 85.13a39.44 39.44 0 00-1.24 4.56 11.35 11.35 0 01-2.65 6.49 12.37 12.37 0 01-3.27 3c-4.44 2.78-10.39 1.79-15 4.17a6.87 6.87 0 00-2.18 1.6c-1.26 1.45-1.6 3.45-1.93 5.35q-1.55 8.74-3.72 17.34a5.45 5.45 0 01-1.05 2.45c-1.45 1.6-4 1.12-6 .51l.36-15.31a44.43 44.43 0 011.09-10.43c.93-3.41 3.26-6.1 5.71-8.61 3.35-3.44 12.23-10.66 22-13.29l1.87-.45a24.1 24.1 0 015.65-.58.59.59 0 01.27.07c.6.29.46 1.62.09 3.13z" fill="#4b39ef"/><path d="M184.49 118.65c-1.6.27-4 .66-7.61 1.3-10.75 1.84-22.81 14.47-24.8 18.42s-2.21 23.6-2.21 23.6l-2.5 2.17.36-15.31a44.43 44.43 0 011.09-10.43c.93-3.41 3.26-6.1 5.71-8.61 3.35-3.44 12.23-10.66 22-13.29l1.87-.45a24.1 24.1 0 015.65-.58.59.59 0 01.27.07c.68.27.54 1.6.17 3.11z" transform="translate(-5.18 -33.52)" fill="url(#m)"/><path d="M190.87 127.8s-1.45 7.55-6.47 7.67a19.68 19.68 0 01-6.43-1.11c.21 3.14-6.35 24.37-4.62 26.52a28.66 28.66 0 004.8 4.35 19.51 19.51 0 01-5.83-2.3c-1.33-1-2.75-2.2-3-3.83a6.89 6.89 0 01.21-2.6c1.54-7.46 3.11-14.92 4.65-22.39a7.32 7.32 0 011.36-.48 42.24 42.24 0 00-5.17-1.42 39.4 39.4 0 00-12.23 0l-2.45-3.29 2.93-2.57 25.92 6.31z" transform="translate(-5.18 -33.52)" fill="url(#n)"/><path d="M152 165.67a4.8 4.8 0 00.16 3.14 2.8 2.8 0 01.35.69.92.92 0 01-.31.93 1 1 0 01-1 .09 1.55 1.55 0 00-.52-.28c-.47-.1-.77.48-.88.95-.22.92-.47 2-1.33 2.37a2.18 2.18 0 01-2.55-1.2 4.13 4.13 0 01-.5-2.67c.36-2.38 2.65-4 3.63-6.18.23-.54.09-.28.51-.69a1.69 1.69 0 011.52-.43c1.92.43 1.13 2 .92 3.28z" transform="translate(-5.18 -33.52)" fill="url(#o)"/><path d="M217.82 198.65q9.84.66 19.72.62c0-1.1-1-1.89-2-2.44-2.33-1.37-4.72-2.65-6.95-4.18-1.69-1.16-3.93-4.07-6.09-4.1-3.55-.07-6.94 9.93-4.68 10.1zm-79 40.42a2.12 2.12 0 00-.38 1.5 2 2 0 001.24 1.13 21.93 21.93 0 008.13 1.41q6.17.21 12.32-.11a2.31 2.31 0 001.93-.76 1.56 1.56 0 00-.24-1.76 4.83 4.83 0 00-1.58-1 37.67 37.67 0 01-6.57-3.8c-1.94-1.47-3.51-4-5.75-5-4.29-1.96-7.44 5.41-9.1 8.39z" fill="#606161"/><path fill="#4b39ef" d="M239.83 199.23l2.6.1 4.89-158.97-2.82-.6-4.67 159.47z"/><path fill="url(#p)" d="M239.83 199.23l2.6.1 4.89-158.97-2.82-.6-4.67 159.47z"/><path fill="#4b39ef" d="M181.35 81.74l4.65 7.59-4.43 2.62-1.81-9.89 1.59-.32z"/><path d="M184.82 92.48a2.1 2.1 0 01-.24.63c-.81 1.58-1.7 3.25-3.24 4.13a6.06 6.06 0 01-3.93.58 15.74 15.74 0 01-3.82-1.27 79.87 79.87 0 01-7.29-3.64c-2.44-1.38-4.88-2.92-7.65-3.36a20.7 20.7 0 00-4.24-.1l-3 .14a1.44 1.44 0 00-.71.15 1.22 1.22 0 00-.32.32l-3.32 4 6.1 2.79a3.42 3.42 0 001 .33 3.68 3.68 0 001.19-.11 26.57 26.57 0 0111.4.29c3.49.86 6.81 2.43 10.37 3a9.55 9.55 0 004-.12 6.51 6.51 0 004.55-5.83 2.52 2.52 0 01.14-.91c.21-.44.69-.66 1-1a1.78 1.78 0 00.39-1.8 1.8 1.8 0 00-1.45-1.15c-.48.32-1.32.63-1.41 1.27s.48 1.02.48 1.66z" fill="#606161"/><path d="M190 126a2.1 2.1 0 01-.24.63c-.81 1.58-1.7 3.25-3.24 4.13a6.06 6.06 0 01-3.93.58 15.74 15.74 0 01-3.82-1.27 79.87 79.87 0 01-7.29-3.64c-2.44-1.38-4.88-2.92-7.65-3.36a20.7 20.7 0 00-4.24-.1l-3 .14a1.44 1.44 0 00-.71.15 1.22 1.22 0 00-.32.32l-3.32 4 6.1 2.79a3.42 3.42 0 001 .33 3.68 3.68 0 001.19-.11 26.57 26.57 0 0111.4.29c3.49.86 6.81 2.43 10.37 3a9.55 9.55 0 004-.12 6.51 6.51 0 004.55-5.83 2.52 2.52 0 01.14-.91c.21-.44.69-.66 1-1a1.78 1.78 0 00.39-1.8 1.8 1.8 0 00-1.45-1.15c-.48.32-1.32.63-1.41 1.27s.48 1.02.48 1.66z" transform="translate(-5.18 -33.52)" fill="url(#q)"/><path d="M189.68 110.17c0-.14.11-.25.11-.39a.54.54 0 00-.21-.35.34.34 0 00-.18-.11.27.27 0 00-.17.06.63.63 0 00-.16.52 2.68 2.68 0 00.21 1c.08.19.22.4.43.42a.53.53 0 00.27-.06c.18-.08.44-.37.25-.57s-.26-.09-.37-.17a.42.42 0 01-.18-.35z" transform="translate(-5.18 -33.52)" fill="url(#r)"/><path d="M236.82 107.87l-.21 1.15-15.62 4.08c-3.08.79-6.37 1.57-9.36.57a15.87 15.87 0 01-5.08-3.2 60.61 60.61 0 01-8.67-8.28l.33-2.17s11.81 10.84 16.07 10.63c4-.21 20.43-2.47 22.36-2.75z" fill="#606161" opacity=".22"/><rect x="133.39" y="173.93" width="46.32" height="33.09" rx="2.76" transform="rotate(-5.39 -202.177 228.734)" fill="#606161"/><rect x="132.43" y="174.02" width="46.32" height="33.09" rx="2.76" transform="rotate(-5.39 -203.138 228.795)" fill="url(#s)"/><rect x="125.77" y="174.72" width="46.32" height="33.09" rx="2.76" transform="rotate(-5.39 -209.773 229.548)" fill="#606161"/><path d="M142.19 130.62l.78.72s2.45-3 4.2-.26l1.06-1s-3.41-4.33-6.04.54z" fill="#4b39ef"/><path d="M147.37 164.14l.78.72s2.45-3 4.2-.26l1.06-1s-3.41-4.33-6.04.54z" transform="translate(-5.18 -33.52)" fill="url(#t)"/><path d="M236.51 104.48l-1.12-.1s-.16 4.17.59 4.73l.58-.05.45-1a6.36 6.36 0 01-.5-3.58z" fill="#4b39ef"/><path d="M236.51 104.48l-1.12-.1s-.16 4.17.59 4.73l.58-.05.45-1a6.36 6.36 0 01-.5-3.58z" fill="#606161" opacity=".22"/><path d="M475.81 239.12a1.77 1.77 0 00-2.38 1.8 78.43 78.43 0 00-.47 14.93 4 4 0 00.46 1.94c.87 1.35 2.83 1.23 4.42 1.43 1.83.22 3.66 1 5.44.58a7.57 7.57 0 003.49-2.64c4.77-5.42 11.09-11.9 14-18.56-3.3-.95-8.79.59-12.4.71q-6.28.21-12.56-.19z" transform="translate(-5.18 -33.52)" fill="url(#u)"/><path d="M248.34 91.17s-6.73-15-21.83-9.5-32.89-8.93-32.89-8.93S196.74 90.32 207.8 92s20.91-3.32 24.81 3.83c5.95 10.91 15.73 7.51 15.73 7.51z" transform="translate(-5.18 -33.52)" fill="url(#v)"/></svg>