<svg data-name="Layer 1" xmlns="http://www.w3.org/2000/svg" xmlns:xlink="http://www.w3.org/1999/xlink" viewBox="0 0 393.7 295.14"><defs><linearGradient id="a" x1="252.53" y1="305.05" x2="271.7" y2="305.05" gradientUnits="userSpaceOnUse"><stop offset="0" stop-opacity="0"/><stop offset=".99"/></linearGradient><linearGradient id="c" x1="226.87" y1="273.85" x2="282.84" y2="273.85" xlink:href="#a"/><linearGradient id="d" x1="245.3" y1="264.59" x2="304.04" y2="264.59" xlink:href="#a"/><linearGradient id="b" x1="319.66" y1="287.4" x2="343.54" y2="287.4" gradientUnits="userSpaceOnUse"><stop offset="0" stop-color="#e5c5d5"/><stop offset=".42" stop-color="#ead4d1"/><stop offset="1" stop-color="#f0e9cb"/></linearGradient><linearGradient id="e" x1="334.51" y1="287.76" x2="355.27" y2="287.76" xlink:href="#b"/><linearGradient id="f" x1="321.3" y1="227.31" x2="349.79" y2="227.31" xlink:href="#b"/><linearGradient id="g" x1="113.1" y1="145.64" x2="132.58" y2="145.64" xlink:href="#b"/><linearGradient id="h" x1="118.84" y1="156.13" x2="125.18" y2="123.86" xlink:href="#a"/><linearGradient id="i" x1="238.77" y1="177.61" x2="259.96" y2="177.61" xlink:href="#b"/><linearGradient id="j" x1="277.91" y1="241.28" x2="324.77" y2="241.28" xlink:href="#a"/><linearGradient id="k" x1="107.29" y1="120.4" x2="140.72" y2="120.4" xlink:href="#b"/><linearGradient id="l" x1="166.6" y1="178.3" x2="202.25" y2="178.3" xlink:href="#b"/><linearGradient id="m" x1="146.64" y1="30" x2="146.42" y2="13.18" xlink:href="#a"/><linearGradient id="n" x1="162.08" y1="2.99" x2="151.46" y2="27.27" xlink:href="#a"/><linearGradient id="o" x1="353.63" y1="176.09" x2="376.17" y2="176.09" xlink:href="#b"/><linearGradient id="p" x1="111.52" y1="237.24" x2="105.89" y2="326.96" xlink:href="#a"/><linearGradient id="q" x1="122.97" y1="131.97" x2="93.1" y2="120.28" xlink:href="#b"/><linearGradient id="r" x1="107.73" y1="128.47" x2="119.5" y2="127.04" xlink:href="#a"/><linearGradient id="s" x1="373.42" y1="241.28" x2="419.34" y2="241.28" xlink:href="#a"/></defs><path d="M1.77 149.3c-6.87 40.38 6.38 85 38.26 110.77 29.6 23.88 69.76 28.85 107.65 32 57.61 4.82 118.28 7.07 170.31-18.13 11.37-5.49 22.31-12.3 34.54-15.49 7-1.84 14.57-2.62 20.19-7.12s8-11.61 9.82-18.48c6.08-23.41 6.41-50.53-8.78-69.35-17.85-22.12-50.79-25.61-71.86-44.67-10.69-9.68-17.65-22.77-27.36-33.42-30.28-33.27-80.35-37.12-125.28-38.7-36.37-1.26-73.9-12.63-100.47 15.36C25.71 86.38 7.22 115.71 1.77 149.3z" fill="#4d5bed" opacity=".18" style="isolation:isolate"/><path d="M246.06 268.37a2.88 2.88 0 01-.2 1.34 3.37 3.37 0 01-2.49 1.46l-.75-1.05c-1.95 1.82-4.91 1.87-7.57 1.77-2.33-.08-4.65-.2-7-.32a1.31 1.31 0 01-1.06-.39 1.15 1.15 0 01-.08-.84 5.39 5.39 0 014.58-4.25c1.78-.19 3.61.54 5.36.15 2.28-.51 3.95-3.1 6.33-3.15s2.82 3.45 2.88 5.28z" fill="#3e3e54"/><path d="M271.7 305.92a2.88 2.88 0 01-.2 1.34 3.37 3.37 0 01-2.49 1.46l-.75-1.05c-1.95 1.82-4.91 1.87-7.57 1.77-2.33-.08-4.65-.2-7-.32a1.31 1.31 0 01-1.06-.39 1.15 1.15 0 01-.08-.84 5.39 5.39 0 014.58-4.25c1.78-.19 3.61.54 5.36.15 2.28-.51 3.95-3.1 6.33-3.15s2.82 3.45 2.88 5.28z" transform="translate(-25.64 -37.55)" fill="url(#a)"/><path d="M213.6 212.25a35.3 35.3 0 00-9.23 3.94 7.77 7.77 0 00-2.12 2 7.52 7.52 0 00-1.13 4.05c-.23 7.74 5.58 14.18 11 19.7l17.86 18.15c2.06 2.1 4.21 4.25 6.94 5.33s6.22.83 8.14-1.4q-9.41-11.92-18.28-24.26a2.19 2.19 0 01-.59-1.92c.33-.91 1.58-1 2.55-.87a29.77 29.77 0 0025.27-11c1.93-2.44 3.52-5.5 2.93-8.56-.52-2.71-2.66-4.82-4.94-6.38-12.44-8.53-25.64-2.86-38.4 1.22z" fill="#3e3e54"/><path d="M239.35 249.81a35.45 35.45 0 00-9.23 3.94 7.77 7.77 0 00-2.12 2 7.43 7.43 0 00-1.12 4c-.24 7.74 5.58 14.18 11 19.7l17.86 18.15c2.07 2.09 4.21 4.24 6.94 5.33s6.23.83 8.14-1.4q-9.39-11.94-18.27-24.26a2.2 2.2 0 01-.6-1.92c.33-.91 1.59-.95 2.55-.87a29.74 29.74 0 0025.27-11c1.93-2.45 3.53-5.51 2.94-8.56-.53-2.72-2.67-4.83-5-6.38-12.4-8.49-25.56-2.81-38.36 1.27z" transform="translate(-25.64 -37.55)" fill="url(#c)"/><path d="M221.05 237.57a7.71 7.71 0 004.46.91h27.34a12.48 12.48 0 005.16-.74 13.34 13.34 0 003.62-2.83 100.89 100.89 0 0115.83-12.56 2 2 0 00.9-.9 1.57 1.57 0 00.08-.65c-.17-3-3.4-5.07-6.41-5.17s-5.88 1.17-8.73 2.15c-13.23 4.58-28.75 3.47-39.95 11.88-2.12 1.55-5.67 5.57-2.3 7.91z" fill="#3e3e54"/><path d="M246.69 275.12a7.71 7.71 0 004.46.91h27.34a12.48 12.48 0 005.16-.74 13.34 13.34 0 003.62-2.83 100.89 100.89 0 0115.83-12.56 2 2 0 00.9-.9 1.57 1.57 0 00.08-.65c-.17-3-3.4-5.07-6.41-5.17s-5.88 1.17-8.73 2.15c-13.23 4.58-28.75 3.47-39.95 11.88-2.12 1.55-5.67 5.57-2.3 7.91z" transform="translate(-25.64 -37.55)" fill="url(#d)"/><path d="M319.66 265c.52.47 17.59 39.84 17.79 42.08.18 2-1.4 3.57-2.63 5.13 1.59-.29 6.73-2.48 7.89-3.61a2.52 2.52 0 00.8-1.23 3 3 0 00-.14-1.38c-1-3.64-6.53-27.92-7.32-32.6a25.48 25.48 0 00-1.4-5.66 8.68 8.68 0 00-3.67-4.41 5.3 5.3 0 00-5.55.16c-1.08-.06-4.75 1.14-5.77 1.52z" transform="translate(-25.64 -37.55)" fill="url(#b)"/><path d="M345.68 272.45c4.3 9.74 5.59 20.55 9.17 30.58a5 5 0 01.42 1.93 3.79 3.79 0 01-.63 1.69 9.12 9.12 0 01-4.47 3.73c.31-6-2.61-11.57-5.44-16.83l-3.76-7a70.66 70.66 0 01-3.6-7.37c-.52-1.29-.95-2.62-1.34-3.95-.83-2.78-3.52-9.31 1.17-10.06 4.27-.65 7.04 4.02 8.48 7.28z" transform="translate(-25.64 -37.55)" fill="url(#e)"/><path d="M335.66 225.62c-2.65.19-5.31-.35-8-.14s-5.49 1.47-6.41 4c1.51 1.39 3.82 1.32 5.86 1.13 5-.47 16.22-.15 21.23-.95 2-.31-2.2-1.6-.39-2.42a2.92 2.92 0 001.79-1.69c-3.69-3.47-9.82-.22-14.08.07z" transform="translate(-25.64 -37.55)" fill="url(#f)"/><path d="M356.74 192.58l.82 20.14c.09 2.07.14 4.26-.91 6-1.86 3.16-6.18 3.59-9.84 3.66l-24.74.47a13.37 13.37 0 00-5.27.81c-1.63.73.42 4.1.52 5.89 0 .67-3.18-.3-3.68.16a1.77 1.77 0 01-1.31.28l-12.23-.65a9.1 9.1 0 01-3.16-.55c-2.45-1.06-3.44-3.94-4.18-6.5a33.39 33.39 0 01-1.72-9.36c0-3.18 1.1-6.5 3.54-8.54 2.93-2.46 7.09-2.61 10.91-2.63l24.47-.17a2.74 2.74 0 002.08-.6c.5-.57.45-1.45.89-2.06a3.08 3.08 0 011.94-1l13.75-3.05a10 10 0 014.4-.3 3.42 3.42 0 012.8 3m-138.99 16.81L198 223.8a45.18 45.18 0 00-8.32 4.94 2.84 2.84 0 00-1.21 3.78c2.86 8.77 11 14.57 18.63 19.74l9.23 6.25 15.35 10.39c1.12.76 2.38 1.55 3.71 1.32 1.93-.32 2.9-2.71 2.42-4.61s-1.94-3.35-3.34-4.71l-14.23-13.87c-3.39-3.3-6.84-6.68-9-10.88 10.23-4 21.4-4.72 32.13-7.09a17.66 17.66 0 007.26-2.88c2.07-1.61 3.46-4.36 2.74-6.89a8.63 8.63 0 00-3.8-4.43 17.93 17.93 0 00-9-3.32c-2.18-.12-4.35.32-6.52.2-1.93-.11-3.27-1.18-5-1.44-3.93-.59-8.84 2.4-12.22 4.09z" fill="#3e3e54"/><path fill="#4d5bed" d="M125.43 192.42h212.83v4.49H125.43zM58.58 29.67h180.01V152.4H58.58z"/><path d="M113.02 89.36c-.91-1 2.55-.36 2-1.56-2.87-5.78-3.71-12.43-6.75-18.12-.48-.89-1-1.75-1.44-2.65a13 13 0 002.68-2.19 34 34 0 003.85-4.81c.17.17.45.29.61.54 9.61 14.76-.9 26.52-.95 28.79z" fill="#3e3e54"/><path d="M96.42 111.82c6.16-.1 12.77.39 17.64 4.17 3.49 2.72 5.63 6.8 7.4 10.86a102.45 102.45 0 016.9 22.65c.14.76 2.59 2.25 1.9 2.6-.24.12-3.81.44-4.08.45-20.63.64-40.39.46-61 1.09a2 2 0 01-1.29-.24 2 2 0 01-.62-1.24c-1.91-7.71-3.75-15.64-2.33-23.42a12.3 12.3 0 011.4-4.14c1.66-2.78 4.41-3.59 7.06-5.07 2.43-1.37 4.53-3.08 7.12-4.2 6.24-2.69 13.17-3.4 19.9-3.51z" fill="#fff"/><path d="M113.8 133.67c-.93 2.44-.74 5.14-.53 7.74l1.19 15a3 3 0 002.1 3.08c2.84 1.54 5.91 3 9.14 2.81s6.56-2.41 6.86-5.62c.19-2.12-.92-4.13-2.21-5.82s-2.82-3.25-3.68-5.19c-1.41-3.21-.79-6.89-1.06-10.38a8.62 8.62 0 00-1.52-4.7c-2.91-3.7-8.91-.52-10.29 3.08z" transform="translate(-25.64 -37.55)" fill="url(#g)"/><path d="M119.09 146.2a19.32 19.32 0 007.15 4.48 1.84 1.84 0 001.9-.09c.61-.6.17-1.62-.26-2.37a21.64 21.64 0 01-2.37-6.27 6.51 6.51 0 00-1.12-3 4.91 4.91 0 00-1.26-.95c-2-1.16-7.39-4-8.89-.74-1.24 2.63 3.14 7.25 4.85 8.94z" transform="translate(-25.64 -37.55)" fill="url(#h)"/><path d="M240.07 175c-.62.78-1.6 1.61-1.22 2.52.21.49.76.73 1.19 1.05a5.5 5.5 0 011.83 3.74 12.9 12.9 0 001 4.14c.66 1.26 2.18 2.22 3.51 1.71.79-.31 1.52-1.1 2.33-.84.62.2.88.92 1.24 1.46a4.22 4.22 0 004.25 1.48 12.35 12.35 0 004.29-2 3.26 3.26 0 001.35-1.3 2.46 2.46 0 000-1.63c-.45-1.63-1.71-2.89-2.76-4.23a19.39 19.39 0 01-3.81-8.54c-.38-2.17-.48-4.6-2-6.16-2.09-2.12-6.61-1.66-8.77.26-2.42 2.04-.5 5.86-2.43 8.34z" transform="translate(-25.64 -37.55)" fill="url(#i)"/><path d="M214.71 128.26a1.87 1.87 0 001.7 1.38c.78.1 1.57-.06 2.35 0a4.52 4.52 0 014 3.12c.61 2-.27 4.34.56 6.29.28.38.91.07 1.13-.35s.31-.94.69-1.22c.63-.46 1.53.13 1.89.83a3.58 3.58 0 01-1.54 4.67c.16.63 1 .81 1.63.66a6.47 6.47 0 011.9-.44c1.49.13 2.25 2.21 3.74 2.28 1 0 1.79-.9 2.38-1.74l1.71-2.47a1.58 1.58 0 00.37-.86 1.7 1.7 0 00-.27-.81 8.7 8.7 0 01-.82-5.49c.42-2.28 1.75-4.4 1.64-6.72a8.14 8.14 0 00-2.6-5.1c-3.41-3.45-8.8-4.67-13.54-4.11a5.3 5.3 0 00-3.9 2.25c-1.28 1.69-3.32 5.72-3.02 7.83z" fill="#3e3e54"/><path d="M230.28 148.15a41.15 41.15 0 00-4.49 2.88 3.64 3.64 0 00-1.09 1.18 1.73 1.73 0 000 1.68c.5.71 1.44.34 2.16 0 3.31-1.73 7-2.22 10.54-2.56a1.34 1.34 0 001.24-.68 1.77 1.77 0 00-.29-1.47c-2.22-3.63-5.19-2.73-8.07-1.03z" fill="#4d5bed"/><path d="M223.93 194.93a66.36 66.36 0 01-5.49-16.09 22.67 22.67 0 00-4.36 5.16c-1.75 2.86-2.59 7.1.07 9.14a32.59 32.59 0 01-14.69 1 6.11 6.11 0 01-3.75-1.64 4.77 4.77 0 01-1-2.88c-.23-3.55 1.79-6.81 3.74-9.79l13.47-20.64a8.81 8.81 0 011.69-2.09 8.61 8.61 0 013.14-1.42 225.77 225.77 0 0125.93-6.06 12.62 12.62 0 014-.25c3.74.55 6.2 4.08 8.08 7.35 9.86 17.1 16.85 36.51 15.75 56.22a11.08 11.08 0 01-.5 3.14 9.1 9.1 0 01-3.05 3.83c-4.4 3.47-10.19 4.76-15.79 4.81-8.36.08-19.39-2.44-25.63-8.45-3.53-3.39 0-5.44 1.69-8.8 2.13-4.23-1.41-8.7-3.3-12.54z" fill="#4d5bed"/><path d="M253.36 228.52c-3.36-16.88 1.28-28.49 8.89-43.94 2.56-5.19 6.16-10.48 11.71-12.11 2.57-.76 5.31-.64 7.95-1.09 5.14-.87 9.87-3.86 15.08-4a1.9 1.9 0 011.42.39 1.86 1.86 0 01.44 1.1 19.41 19.41 0 01-.08 6.84c-.78 4.14-2.85 7.9-4.56 11.75a72.76 72.76 0 00-6.26 30.84 10.16 10.16 0 01-.38 3.85 8.52 8.52 0 01-2.24 3c-7 6.76-16.22 10.62-25.22 14.33a4.32 4.32 0 01-2.15.47 3.68 3.68 0 01-2.32-1.73 13.3 13.3 0 01-2.28-9.77" fill="#3e3e54"/><path d="M279 266.07c-3.36-16.88 1.28-28.49 8.89-43.94 2.56-5.19 6.16-10.48 11.71-12.11 2.57-.76 5.31-.64 7.95-1.09 5.14-.87 9.87-3.86 15.08-4a1.9 1.9 0 011.42.39 1.86 1.86 0 01.44 1.1 19.41 19.41 0 01-.08 6.84c-.78 4.14-2.85 7.9-4.56 11.75a72.76 72.76 0 00-6.26 30.84 10.16 10.16 0 01-.38 3.85 8.52 8.52 0 01-2.24 3c-7 6.76-16.22 10.62-25.22 14.33a4.32 4.32 0 01-2.15.47 3.68 3.68 0 01-2.32-1.73A13.3 13.3 0 01279 266" transform="translate(-25.64 -37.55)" fill="url(#j)"/><path fill="#4d5bed" d="M221.05 237.57l-13.63 40.57h4.13l13.95-39.66-4.45-.91zm29.33.64l11.85 39.66h5.78l-12.35-39.58-5.28-.08zm28.37-7.44l13.77 44.62h-4.96l-13.77-42.14 4.96-2.48z"/><path d="M140.24 122.19a33.37 33.37 0 01.28 8.81 16.91 16.91 0 01-6.43 10.92 12.88 12.88 0 01-10.9 2.53c-4.9-1.35-8-6-10.36-10.57-2.6-5-4.82-10.34-5.4-16s.63-11.61 4.26-15.94a16.75 16.75 0 0125.34-.39c3.49 3.97 2.57 15.39 3.21 20.64z" transform="translate(-25.64 -37.55)" fill="url(#k)"/><path d="M113.36 60.03a34 34 0 01-3.89 4.81 13 13 0 01-2.68 2.19c-3.43 2.16-7.69 3.06-11.29 4.83a7.26 7.26 0 00-2.85 2.18c-1.59 2.29-.74 5.79-2.68 7.79a5 5 0 00-1 1.14 2.93 2.93 0 00-.11 1.56 75.77 75.77 0 01.08 16.83c-2.32-2.44-5.76-3.46-8.36-5.61-5.24-4.31-5.91-12-6-18.77a31.29 31.29 0 011.06-10c1-3.21 3.28-6.2 6.46-7.34a5.39 5.39 0 001.39-.61 4.48 4.48 0 001.14-1.81c3.39-7.41 12.35-9.5 19.62-7.08 3 1 6.2 2.88 7.52 5.91a9.77 9.77 0 01.58 1.84c.75-.22 1.35-.24 1.55.12s-.02 1.15-.54 2.02z" fill="#3e3e54"/><path fill="#fff" d="M137.17 74.05h77.39v57.08h-77.39z"/><path d="M202.25 167.67a1.35 1.35 0 01-.64 1 26.82 26.82 0 01-9.16 4.84c-1.56.47-2.92.72-3.71 2.18a27.78 27.78 0 00-1.49 4.43 52 52 0 01-3.83 8.79c-.19.35-.39.7-.61 1H166.6a5 5 0 011-1.3 46.16 46.16 0 006.37-8.52c.22-.37.43-.74.64-1.12.69-1.21 1.33-2.45 1.94-3.71s1.27-4.18 2.35-5.13c1.32-1.18 3.53-.76 5.12-.72a27.91 27.91 0 007.46-.77c3.18-.8 6.31-2.43 9.56-1.93.52.12 1.18.4 1.21.96z" transform="translate(-25.64 -37.55)" fill="url(#l)"/><path fill="#4d5bed" d="M145.85 86.14h6.42v35.74h-6.42zm10.71 11.62h6.42v24.12h-6.42zm11.18-4.14h6.42v28.26h-6.42zm11.55 4.14h6.42v24.12h-6.42zm-39.5-74.69h13.08v5.65h-13.08z"/><path fill="#4d5bed" d="M145.36 13.81h2.3v11.28h-2.3z"/><path fill="url(#m)" d="M145.36 13.81h2.3v11.28h-2.3z"/><path fill="#4d5bed" d="M141.504.002l25.01 10.308-4.646 11.27-25.009-10.308z"/><path fill="url(#n)" d="M161.06 19.98l-10.64-4.26 3.77-9.34 10.64 4.26-3.77 9.34z"/><circle cx="158.91" cy="13.65" r="2.32" fill="#4d5bed"/><path d="M355.43 172.34a11.62 11.62 0 00-.57 1.3 13.49 13.49 0 01-.59 1.62 3 3 0 00-.6 2.07c.19 1 1.07 1.59 1.77 2.27a8.31 8.31 0 011.76 2.4c.54 1.14.89 2.49 1.94 3.19 1.4.94 3.39.3 4.87 1.11 2.16 1.18 1.13 5.69 3.53 5.74a17.39 17.39 0 006-1 4 4 0 002.3-1.59c.8-1.44-.17-3.18-.8-4.71-2.59-6.26.62-14.05-2.81-19.89a10 10 0 00-5.09-4.25 8.48 8.48 0 00-8.19 1.15c-2.48 2-1.4 5.42-2.4 8.13a23.84 23.84 0 01-1.12 2.46z" transform="translate(-25.64 -37.55)" fill="url(#o)"/><path d="M332.36 118.45a7.62 7.62 0 002.52 11c1.85 1 4.28 1.45 5.27 3.31a12.81 12.81 0 01.73 3.56c.13.64.53 1.39 1.19 1.34 1.08-.09 1-2.1 2.05-2.32a2.74 2.74 0 01-.42 4.34c-.33.18-.76.38-.74.75s.47.51.8.68c1.49.8 1 3.24 2.27 4.41a3.17 3.17 0 002.4.65 8.08 8.08 0 005.87-3.55 12.09 12.09 0 002-6.7 6.06 6.06 0 01.36-2.55 1.69 1.69 0 012.12-1c-.58 3-1.16 6.07-.37 9a10.1 10.1 0 007.06 7 10.17 10.17 0 01-1.4-4.77 20.34 20.34 0 01.58-4.77l1.33-6.61a23.2 23.2 0 00.68-5.79 7.84 7.84 0 00-2.15-5.3 4.8 4.8 0 00-5.38-1 5.23 5.23 0 00-2.48 3.73 15.5 15.5 0 00.05 4.61 64.35 64.35 0 01-5.93-7.14 12.5 12.5 0 00-3.88-4.1c-1.9-1-4.18-.88-6.33-.72-3 .22-5.94-.31-8.2 1.94z" fill="#3e3e54"/><path d="M351.03 152.06c-1.54.08-3.09.24-4.61.47a12.2 12.2 0 00-3.59 1 9.3 9.3 0 00-3.2 2.78c-3.4 4.48-3.8 10.45-5.27 15.88a14.25 14.25 0 01-1.91 4.5c-2.06 2.94-5.69 4.31-9.16 5.21-1.54.39-3.24.84-4.07 2.18a5.38 5.38 0 00-.62 2.66c-.09 2 .23 4.38 2 5.29a5.51 5.51 0 001.93.46 32.63 32.63 0 0011.47-.94c.73 1 0 2.47.49 3.6s2.08 1.38 3.37 1.41a104 104 0 0016-1 4.4 4.4 0 001.68-.48 4.24 4.24 0 001.52-2.52 71.9 71.9 0 002.5-23.29 45.66 45.66 0 00-1.47-10.82c-.57-2-1.46-4.07-3.21-5.19-1.94-1.23-4.43-1-6.72-.76" fill="#4d5bed"/><path d="M318.72 276.93c0 .49-.15 1.13-.64 1.16s-.72-.56-.75-1 0-1.05-.43-1.29-1 .19-1.48.52c-2.94 2.13-11.06 3.13-14.73 3.04-1.13-3.05 6.17-4 7.85-4.87 1.35-.67 2.8-1.15 4.1-1.92s2.21-2.22 3.53-2.56c2.98-.77 2.58 5.21 2.55 6.92z" fill="#3e3e54"/><path d="M332.16 274.77a2.51 2.51 0 01-.05 1.36.86.86 0 01-1.12.49 5.14 5.14 0 00-.53-1.92 1 1 0 00-.36-.43c-.45-.24-.94.25-1.23.68a5.08 5.08 0 01-2.18 2.08 5.54 5.54 0 01-1.77.26l-3.09.1c-.1 0-7.26.91-7.35.86s-.63-.73 1.48-2.24c1.54-1.1 8.73-5.93 8.73-5.93-1.11 3 3.3-1.25 4.13-1.6 3.28-1.35 3.02 4.23 3.34 6.29z" fill="#3e3e54"/><path fill="#4d5bed" d="M121.08 198.08h57.88v72.73h-57.88zM55.9 214.29c-.51-2.8 0-6.63 2.77-7.11 1.81-.31 3.43 1.1 4.7 2.43a142 142 0 0116.07 20.11 135.47 135.47 0 01-6.76-27.27c-.43-3.1-.71-6.45.79-9.21s5.5-4.32 7.89-2.29c1.32 1.12 1.76 2.94 2.14 4.63l3.67 16.59c.15-6.71-2-13.31-1.86-20s3.38-14.25 9.91-15.84a219.9 219.9 0 01-1.45 50.63c2.5-2.87 3.46-6.73 5.26-10.09s5.17-6.5 8.93-5.86c.81 7.66-3.63 14.77-7.89 21.19 2-1.88 4.23-3.84 7-4.33s6 1.19 6.2 4-2.53 4.63-4.89 6l-19.1 10.94a6.42 6.42 0 01-2.56 1 5.77 5.77 0 01-3.1-.89c-12.88-6.83-25.08-20.14-27.72-34.63z"/><path d="M81.54 251.84c-.51-2.8 0-6.63 2.77-7.11 1.81-.31 3.43 1.1 4.7 2.43a142 142 0 0116.07 20.11A135.47 135.47 0 0198.32 240c-.43-3.1-.71-6.45.79-9.21s5.5-4.32 7.89-2.29c1.32 1.12 1.76 2.94 2.14 4.63l3.67 16.59c.15-6.71-2-13.31-1.86-20s3.38-14.25 9.91-15.84a219.9 219.9 0 01-1.45 50.63c2.5-2.87 3.46-6.73 5.26-10.09s5.17-6.5 8.93-5.86c.81 7.66-3.63 14.77-7.89 21.19 2-1.88 4.23-3.84 7-4.33s6 1.19 6.2 4-2.53 4.63-4.89 6l-19.1 10.94a6.42 6.42 0 01-2.56 1 5.77 5.77 0 01-3.1-.89c-12.88-6.83-25.08-20.14-27.72-34.63z" transform="translate(-25.64 -37.55)" fill="url(#p)"/><path fill="#4d5bed" d="M73.57 247.74h25.97v25.24H73.57z"/><path d="M111.29 122.55a2.84 2.84 0 00-1.26.18 3.07 3.07 0 00-1.64 2.34A7.56 7.56 0 00111 132a5.11 5.11 0 002.4 1.33 2.61 2.61 0 002.52-.82 4.12 4.12 0 00.51-2.94c-.3-3.27-1.24-6.82-5.14-7.02z" transform="translate(-25.64 -37.55)" fill="url(#q)"/><path d="M113.31 127.84a17.08 17.08 0 00-.75-1.63 3.35 3.35 0 00-.54-.59 1.47 1.47 0 00-1.27-.47 1.06 1.06 0 00-.67.65 2.18 2.18 0 00-.11 1 4.89 4.89 0 001.62 3.3 2.66 2.66 0 00.72.48 3.39 3.39 0 001.27.16 1.68 1.68 0 00.45 0 1.32 1.32 0 00.62-1.61c-.26-.61-1.02-.69-1.34-1.29z" transform="translate(-25.64 -37.55)" fill="url(#r)"/><path d="M315.62 237.57a7.71 7.71 0 004.46.91h27.34a12.48 12.48 0 005.16-.74 13.54 13.54 0 003.63-2.83 100.36 100.36 0 0115.82-12.56 1.93 1.93 0 00.86-.86 1.57 1.57 0 00.08-.65c-.17-3-3.4-5.07-6.41-5.17s-5.88 1.17-8.73 2.15c-13.23 4.58-28.75 3.47-40 11.88-2.03 1.51-5.58 5.53-2.21 7.87z" fill="#3e3e54"/><path d="M350.24 234.89a79.57 79.57 0 016.6-50.31c2.56-5.19 6.16-10.48 11.71-12.11 2.57-.76 5.31-.64 7.95-1.09 5.14-.87 9.87-3.86 15.08-4a1.9 1.9 0 011.42.39 1.86 1.86 0 01.44 1.1 19.41 19.41 0 01-.08 6.84c-.78 4.14-2.85 7.9-4.56 11.75a72.91 72.91 0 00-6.26 30.84 10.16 10.16 0 01-.38 3.85 8.52 8.52 0 01-2.24 3c-7 6.76-16.22 10.62-25.22 14.33a4.32 4.32 0 01-2.15.47 3.68 3.68 0 01-2.32-1.73 13.3 13.3 0 01-2.28-9.77" fill="#3e3e54"/><path d="M375.88 272.44a79.57 79.57 0 016.6-50.31c2.56-5.19 6.16-10.48 11.71-12.11 2.57-.76 5.31-.64 7.95-1.09 5.14-.87 9.87-3.86 15.08-4a1.9 1.9 0 011.42.39 1.86 1.86 0 01.44 1.1 19.41 19.41 0 01-.08 6.84c-.78 4.14-2.85 7.9-4.56 11.75a72.91 72.91 0 00-6.26 30.84 10.16 10.16 0 01-.38 3.85 8.52 8.52 0 01-2.24 3c-7 6.76-16.22 10.62-25.22 14.33a4.32 4.32 0 01-2.15.47 3.68 3.68 0 01-2.32-1.73 13.3 13.3 0 01-2.28-9.77" transform="translate(-25.64 -37.55)" fill="url(#s)"/><path fill="#4d5bed" d="M315.62 237.57l-13.63 40.57h4.13l13.96-39.66-4.46-.91zm29.33.64l11.85 39.66h5.78l-12.35-39.58-5.28-.08zm28.37-7.44l13.77 44.62h-4.96l-13.77-42.14 4.96-2.48z"/><path d="M239.27 271.08a3.08 3.08 0 01-.19 1.35 3.4 3.4 0 01-2.5 1.45l-.75-1.05c-1.94 1.82-4.91 1.87-7.57 1.78q-3.5-.14-7-.32a1.26 1.26 0 01-1.06-.4 1.15 1.15 0 01-.09-.84 5.38 5.38 0 014.58-4.24c1.78-.2 3.61.53 5.36.14 2.28-.51 4-3.1 6.33-3.15s2.83 3.46 2.89 5.28z" fill="#3e3e54"/></svg>