<svg xmlns="http://www.w3.org/2000/svg" viewBox="0 0 400 300"><g data-name="#298_new_message_flatline"><path d="M260.06 254.49l13.09-64.75 4.32-39.74S234 107.29 221.58 93.3s-26.41-34.06-32.81-32.56-7.63 8.8-3.44 17.79c1.72 3.69 4.33 7.79 5.51 11.61 1 3.11.67 11.87-2.34 14.07-3.61 2.64-7.06-10.12-11.64-7.85-2.41 1.19-4.8 7.38-2.74 14a51 51 0 004.64 9.1c3.77 6.07 3.8 9.86 6.21 16.51 2.48 6.84 1.85-2.4-.46 3.87-2.81 7.61-6.76 16.51-6.93 24.76-.26 13.19 15.62 34.54 22.15 44.95s-6.07 35.13-6.07 35.13z" fill="#fff"/><path d="M260.06 255H260l-66.41-9.79a.5.5 0 01-.37-.26.53.53 0 010-.46c.13-.25 12.41-24.58 6.1-34.63-1.07-1.71-2.43-3.76-3.86-5.93-7.4-11.2-18.59-28.12-18.37-39.3.14-7.06 3-14.63 5.59-21.31.47-1.23.93-2.44 1.37-3.61a7.62 7.62 0 011-2.08c-.18-.38-.37-.86-.58-1.45-.82-2.25-1.36-4.15-1.87-6a36.25 36.25 0 00-4.3-10.43 50.88 50.88 0 01-4.69-9.23c-2.15-6.94.34-13.29 3-14.61s5 1.73 7 4.45a19.65 19.65 0 002.59 3.11c1 .85 1.58.65 2 .34 2.74-2 3.14-10.4 2.17-13.52a47.1 47.1 0 00-3.48-7.58c-.73-1.38-1.42-2.68-2-4-2.68-5.77-3.22-10.87-1.52-14.38a7.62 7.62 0 015.3-4.11c5.1-1.17 13.77 9.32 23.81 21.48 3.14 3.8 6.39 7.73 9.5 11.24 12.25 13.81 55.42 56.2 55.86 56.63a.49.49 0 01.14.41l-4.31 39.79-13.1 64.79a.49.49 0 01-.51.44zm-65.65-10.7l65.26 9.62 13-64.27 4.28-39.51c-3-3-43.85-43.11-55.73-56.51-3.12-3.52-6.38-7.46-9.52-11.27-9-10.9-18.32-22.19-22.81-21.13a6.52 6.52 0 00-4.63 3.57c-1.55 3.18-1 8.11 1.53 13.52.59 1.26 1.27 2.55 2 3.92a48.36 48.36 0 013.53 7.76c1 3.11.8 12.19-2.53 14.63-1 .72-2.07.59-3.23-.39a19.12 19.12 0 01-2.75-3.28c-1.84-2.52-3.75-5.13-5.73-4.14s-4.52 6.86-2.48 13.42a51.32 51.32 0 004.58 9 36.77 36.77 0 014.41 10.69c.51 1.81 1 3.69 1.85 5.91.18.51.35.92.49 1.23a1.15 1.15 0 01.26 0 1.26 1.26 0 01.87 1.3.71.71 0 01-.55.79c-.28 0-.56-.06-.89-.54A8.49 8.49 0 00185 140c-.44 1.18-.9 2.4-1.38 3.63-2.52 6.6-5.38 14.08-5.52 21-.21 10.86 10.87 27.63 18.2 38.73 1.44 2.18 2.8 4.23 3.88 5.95 6.08 9.69-3.81 30.99-5.77 34.99z" fill="#231f20"/><rect x="176.92" y="46.16" width="80.23" height="159.92" rx="5.11" transform="rotate(-162.72 217.026 126.134)" fill="#fff"/><path d="M228.21 213.61a5.62 5.62 0 01-1.66-.25l-66.85-20.8a5.63 5.63 0 01-3.69-7l44.48-142.97a5.62 5.62 0 017-3.69l66.84 20.8a5.62 5.62 0 013.69 7l-44.44 142.96a5.64 5.64 0 01-5.37 3.95zM160 191.6l66.84 20.8a4.63 4.63 0 005.78-3l44.47-142.97a4.62 4.62 0 00-3-5.78l-66.84-20.8a4.62 4.62 0 00-5.78 3L157 185.83a4.61 4.61 0 003 5.77z" fill="#231f20"/><path fill="#e6e7e8" d="M234.03 191.736l-68.56-21.327 36.56-117.525 68.56 21.328z"/><path d="M201.39 200.24a3.69 3.69 0 01-1.09-.16l-13-4.06a3.64 3.64 0 01-2.39-4.56l1.55-5a3.65 3.65 0 014.56-2.4l13 4.06a3.65 3.65 0 012.4 4.56l-1.55 5a3.66 3.66 0 01-3.48 2.56zm-11.5-15.33a2.64 2.64 0 00-2.52 1.86l-1.55 5a2.63 2.63 0 001.74 3.31l13 4.06a2.63 2.63 0 003.31-1.74l1.55-5a2.66 2.66 0 00-1.74-3.32l-13-4.05a2.66 2.66 0 00-.79-.12zm62.57-123.49h-.14l-19.53-6.07a.5.5 0 01.3-1l19.52 6.07a.51.51 0 01.33.63.5.5 0 01-.48.37zm-22.18-7.16h-.15l-2.62-.82a.5.5 0 01.3-1l2.62.82a.51.51 0 01.33.63.51.51 0 01-.48.37z" fill="#d1d3d4"/><path d="M195.5 109.58a7 7 0 01-6 5.14 14.05 14.05 0 01-9.85-2.53 15.37 15.37 0 01-4.12-4.29c-1.86-2.91-2.45-6.22-1.3-8.76 1.88-4.15 8.36-5.11 13.94-2.66 5.22 2.29 8.19 9.22 7.33 13.1z" fill="#fff"/><path d="M187.79 115.35a15.09 15.09 0 01-8.43-2.75 15.73 15.73 0 01-4.25-4.43c-2-3.16-2.52-6.62-1.34-9.24 1.95-4.28 8.49-5.58 14.6-2.9 5.37 2.35 8.56 9.4 7.61 13.66a7.43 7.43 0 01-6.4 5.52 10.55 10.55 0 01-1.79.14zM182 95.66c-3.38 0-6.25 1.3-7.33 3.69s-.58 5.4 1.26 8.28a14.74 14.74 0 004 4.15 13.49 13.49 0 009.47 2.45 6.48 6.48 0 005.6-4.76c.77-3.46-1.85-10.25-7-12.53a15 15 0 00-6-1.28zm13.48 13.92z" fill="#231f20"/><path d="M188.51 128.56a6.58 6.58 0 01-.81 5.69 7.72 7.72 0 01-2.86 2.16c-3 1.46-6.59 2-9.57.58a13.55 13.55 0 01-4.52-4c-2.17-2.76-4.07-6-4-9.51.12-5.08 5.63-10.85 10.89-8.46 4.36 1.92 9.62 9.09 10.87 13.54z" fill="#fff"/><path d="M179.14 138.33a9.28 9.28 0 01-4.09-.89 14 14 0 01-4.69-4.18c-2.87-3.65-4.17-6.77-4.1-9.83a10.7 10.7 0 014.9-8.29 6.89 6.89 0 016.7-.61c4.47 2 9.86 9.34 11.13 13.9a7.08 7.08 0 01-.89 6.13 8.23 8.23 0 01-3 2.3 13.5 13.5 0 01-5.96 1.47zm-4-23.4a6.44 6.44 0 00-3.43 1 9.7 9.7 0 00-4.43 7.47c-.07 2.82 1.17 5.74 3.88 9.19a13.21 13.21 0 004.35 3.9c2.54 1.23 5.87 1 9.13-.58a7 7 0 002.68-2 6.05 6.05 0 00.73-5.25c-1.19-4.27-6.42-11.37-10.59-13.26a5.52 5.52 0 00-2.34-.47z" fill="#231f20"/><path d="M181.14 142.71a9.29 9.29 0 011.73 3.61 8 8 0 01-3.38 7.86 11.34 11.34 0 01-8.66 1.59 12.74 12.74 0 01-8.56-5.87 10.28 10.28 0 01-.12-10.21c4.85-8.12 14.76-2.69 18.99 3.02z" fill="#fff"/><path d="M173.33 156.52a13.64 13.64 0 01-2.6-.26 13.25 13.25 0 01-8.89-6.11 10.75 10.75 0 01-.12-10.72 8.19 8.19 0 016.74-4.34c4.8-.27 10.23 3.49 13.08 7.32a9.69 9.69 0 011.82 3.81 8.54 8.54 0 01-3.58 8.37 11.19 11.19 0 01-6.45 1.93zm-4.4-20.44h-.42a7.14 7.14 0 00-5.93 3.85 9.74 9.74 0 00.12 9.7 12.23 12.23 0 008.23 5.64 10.75 10.75 0 008.27-1.51 7.52 7.52 0 003.18-7.35 8.73 8.73 0 00-1.64-3.41c-2.61-3.5-7.44-6.92-11.81-6.92zm99.52 124.78l2.13-40.74-77.72.97-15.42 39.77h91.01z" fill="#231f20"/><path d="M268.45 261.35h-91a.52.52 0 01-.41-.21.5.5 0 01-.05-.46l15.42-39.77a.49.49 0 01.46-.32l77.72-1a.43.43 0 01.36.15.5.5 0 01.14.37L269 260.88a.5.5 0 01-.55.47zm-90.28-1H268l2.08-39.74-76.85 1z" fill="#231f20"/><path d="M272.44 192s12.27-41.1 10-50.7-6.7-48.44-10.69-49.94-12 9.55-11.79 21.64a69.55 69.55 0 003.42 21s-13.26 5.84-14.75 38.4" fill="#fff"/><path d="M272.44 192.52h-.14a.52.52 0 01-.34-.63c.13-.41 12.2-41.07 10-50.44-.69-3-1.59-8.66-2.63-15.24-2-12.5-5.25-33.41-7.74-34.34a3.2 3.2 0 00-2.75.74c-4.12 2.89-8.49 11.52-8.37 20.43a70 70 0 003.39 20.8.5.5 0 01-.26.63s-3.28 1.51-6.66 6.89c-3.14 5-7 14.44-7.8 31.07a.49.49 0 01-.53.48.5.5 0 01-.47-.52c1.36-29.67 12.32-37.33 14.64-38.63a72 72 0 01-3.3-20.76c-.13-9.23 4.47-18.22 8.8-21.26a4 4 0 013.67-.86c2.82 1.06 5.25 15.23 8.38 35.12 1 6.57 1.93 12.24 2.61 15.17 2.26 9.63-9.52 49.28-10 51a.49.49 0 01-.5.35z" fill="#231f20"/><path d="M220.48 58.64H126.2a8.93 8.93 0 00-8.93 8.93v62.25a8.93 8.93 0 008.93 8.94h79.94l13.16 16.74v-16.74h1.18a8.93 8.93 0 008.93-8.94V67.57a8.93 8.93 0 00-8.93-8.93z" fill="#fff"/><path d="M219.3 156a.51.51 0 01-.4-.2l-13-16.54h-79.7a9.45 9.45 0 01-9.43-9.44V67.57a9.44 9.44 0 019.43-9.43h94.28a9.44 9.44 0 019.43 9.43v62.25a9.45 9.45 0 01-9.43 9.44h-.68v16.24a.51.51 0 01-.34.47.45.45 0 01-.16.03zm-93.1-96.86a8.44 8.44 0 00-8.43 8.43v62.25a8.45 8.45 0 008.43 8.44h79.94a.53.53 0 01.4.19l12.26 15.6v-15.29a.5.5 0 01.5-.5h1.18a8.45 8.45 0 008.43-8.44V67.57a8.44 8.44 0 00-8.43-8.43z" fill="#231f20"/><path d="M204.05 90.09l-28.93-21.76a3 3 0 00-3.57 0l-28.93 21.76v36.61h61.43V90.09z" fill="#231f20"/><path d="M204.05 127.2h-61.43a.49.49 0 01-.49-.49V90.09a.49.49 0 01.2-.4l28.92-21.75a3.47 3.47 0 014.17 0l28.93 21.75a.52.52 0 01.2.4v36.62a.49.49 0 01-.15.35.5.5 0 01-.35.14zm-60.93-1h60.43V90.34l-28.72-21.61a2.49 2.49 0 00-3 0l-28.71 21.61z" fill="#231f20"/><path fill="#fff" d="M148.36 78.11h48.43v45.87h-48.43z"/><path d="M196.79 124.44h-48.43a.46.46 0 01-.46-.46V78.11a.46.46 0 01.46-.46h48.43a.47.47 0 01.46.46V124a.47.47 0 01-.46.44zm-48-.91h47.52v-45h-47.5z" fill="#231f20"/><path d="M189.68 102.56h-34.21a.5.5 0 01-.5-.5.5.5 0 01.5-.5h34.21a.5.5 0 01.5.5.51.51 0 01-.5.5zm-15.54 4.89h-18.67a.5.5 0 010-1h18.67a.5.5 0 010 1zm15.54-19.57h-34.21a.5.5 0 010-1h34.21a.5.5 0 010 1zm0 4.89h-34.21a.5.5 0 01-.5-.5.5.5 0 01.5-.5h34.21a.51.51 0 01.5.5.5.5 0 01-.5.5zm0 4.9h-34.21a.5.5 0 01-.5-.5.5.5 0 01.5-.5h34.21a.5.5 0 01.5.5.51.51 0 01-.5.5z" fill="#d1d3d4"/><path fill="#fff" d="M204.05 90.09v39.35h-61.42V90.09l30.71 23.1 30.71-23.1z"/><path d="M204.05 129.9h-61.43a.45.45 0 01-.45-.46V90.09a.47.47 0 01.25-.41.46.46 0 01.48 0l30.44 22.9 30.44-22.9a.46.46 0 01.48 0 .47.47 0 01.25.41v39.35a.46.46 0 01-.46.46zm-61-.91h60.51V91l-30 22.55a.47.47 0 01-.55 0L143.08 91z" fill="#231f20"/><path fill="#fff" d="M142.62 129.44l25.67-20.05"/><path d="M142.62 129.9a.45.45 0 01-.36-.18.46.46 0 01.08-.64L168 109a.46.46 0 01.64.08.45.45 0 01-.08.64l-25.65 20.08a.46.46 0 01-.29.1z" fill="#231f20"/><path fill="#fff" d="M177.89 109.77l26.16 19.67"/><path d="M204.05 129.9a.46.46 0 01-.27-.09l-26.17-19.68a.46.46 0 01.55-.73l26.17 19.68a.46.46 0 01-.28.82z" fill="#231f20"/><circle cx="204.05" cy="109.77" r="12.85" fill="#68e1fd"/><path d="M204.05 105.43l-4 2v-3.1l4.19-2.13h2.88v12.12H204z" fill="#fff"/><path d="M135.67 87.1h-.12l-11.5-2.73a.5.5 0 01.23-1l11.5 2.73a.49.49 0 01.37.6.48.48 0 01-.48.4zm3.1-6.6a.49.49 0 01-.3-.1l-11.2-8.67a.49.49 0 01-.09-.7.51.51 0 01.7-.09l11.2 8.67a.5.5 0 01-.31.89zm6.79-7.08a.51.51 0 01-.47-.32l-2.94-8a.52.52 0 01.3-.65.5.5 0 01.64.3l2.94 8a.49.49 0 01-.3.64.47.47 0 01-.17.03z" fill="#d1d3d4"/></g></svg>